ply
format ascii 1.0
comment Created by Blender 2.79 (sub 0) - www.blender.org, source file: ''
element vertex 20
property float x
property float y
property float z
property float nx
property float ny
property float nz
element face 10
property list uchar uint vertex_indices
end_header
-5.0 -5.0 5.0 1.0 0.0 0.0
-5.0 -5.0 0.0 1.0 0.0 0.0
-5.0 5.0 0.0 1.0 0.0 0.0
-5.0 5.0 5.0 1.0 0.0 0.0
5.0 5.0 5.0 -1.0 0.0 0.0
5.0 5.0 0.0 -1.0 0.0 0.0
5.0 -5.0 0.0 -1.0 0.0 0.0
5.0 -5.0 5.0 -1.0 0.0 0.0
-5.0 5.0 5.0 0.0 -1.0 0.0
-5.0 5.0 0.0 0.0 -1.0 0.0
5.0 5.0 0.0 0.0 -1.0 0.0
5.0 5.0 5.0 0.0 -1.0 0.0
5.0 -5.0 5.0 0.0 1.0 0.0
5.0 -5.0 0.0 0.0 1.0 0.0
-5.0 -5.0 0.0 0.0 1.0 0.0
-5.0 -5.0 5.0 0.0 1.0 0.0
-5.0 5.0 0.0 0.0 0.0 1.0
-5.0 -5.0 0.0 0.0 0.0 1.0
5.0 -5.0 0.0 0.0 0.0 1.0
5.0 5.0 0.0 0.0 0.0 1.0
3 0 1 2
3 0 2 3
3 4 5 6
3 4 6 7
3 8 9 10
3 8 10 11
3 12 13 14
3 12 14 15
3 16 17 18
3 16 18 19
